<?xml version="1.0" encoding="UTF-8"?>
<svg xmlns="http://www.w3.org/2000/svg" xmlns:xlink="http://www.w3.org/1999/xlink" viewBox="0 0 48 48" width="48px" height="48px">
<g id="surface107505">
<path style=" stroke:none;fill-rule:nonzero;fill:rgb(100%,5.882353%,0%);fill-opacity:1;" d="M 44 24 C 44 35.046875 35.046875 44 24 44 C 12.953125 44 4 35.046875 4 24 C 4 12.953125 12.953125 4 24 4 C 35.046875 4 44 12.953125 44 24 Z M 44 24 "/>
<path style=" stroke:none;fill-rule:nonzero;fill:rgb(100%,100%,100%);fill-opacity:1;" d="M 21 29 L 29 24 L 21 19 Z M 21 29 "/>
<path style="fill:none;stroke-width:1;stroke-linecap:butt;stroke-linejoin:miter;stroke:rgb(100%,100%,100%);stroke-opacity:1;stroke-miterlimit:10;" d="M 86 50.166667 C 105.708333 50.166667 121.833333 66.207682 121.833333 86 C 121.833333 105.792318 105.792318 121.833333 86 121.833333 C 66.207682 121.833333 50.166667 105.792318 50.166667 86 C 50.166667 66.207682 66.291667 50.166667 86 50.166667 " transform="matrix(0.27907,0,0,0.27907,0,0)"/>
</g>
</svg>
